<svg width="1175" height="172" viewBox="0 0 1175 172" fill="none" xmlns="http://www.w3.org/2000/svg">
<g clip-path="url(#clip0_180_762)">
<path d="M43.6754 12H0V55.6754H43.6754V12Z" fill="#40BA21"/>
<path d="M160.074 12H116.414V128.339H101.86V12H58.1992V171.985H94.5683V172H138.244V171.985H160.074V12Z" fill="#40BA21"/>
<path d="M43.6754 70.1548H0V171.985H43.6754V70.1548Z" fill="#40BA21"/>
<path d="M251.787 40.3582L235.89 69.9111C234.361 72.7561 232.512 74.9077 230.342 76.3658C228.209 77.8239 225.879 78.5529 223.354 78.5529C221.398 78.5529 219.371 78.1262 217.273 77.2726L219.353 70.7113C220.847 71.1736 222.092 71.4047 223.088 71.4047C224.154 71.4047 225.115 71.1558 225.968 70.6579C226.822 70.1245 227.604 69.3065 228.315 68.2041L228.635 67.7773L213.912 40.3582H223.141L233.063 60.4158L243.305 40.3582H251.787Z" fill="black"/>
<path d="M290.141 40.3582V77.6994H281.499V62.3895H264.535V77.6994H255.894V40.3582H264.535V55.0813H281.499V40.3582H290.141Z" fill="black"/>
<path d="M299.497 40.3582H308.085V64.6833L325.902 40.3582H334.01V77.6994H325.475V53.4276L307.658 77.6994H299.497V40.3582Z" fill="black"/>
<path d="M369.18 58.2286C371.456 58.9043 373.199 60.0068 374.408 61.536C375.617 63.0652 376.221 64.95 376.221 67.1905C376.221 70.4979 374.959 73.0762 372.434 74.9255C369.945 76.7748 366.371 77.6994 361.712 77.6994H343.308V40.3582H360.698C365.037 40.3582 368.415 41.1939 370.834 42.8654C373.252 44.5368 374.461 46.9196 374.461 50.0136C374.461 51.8628 373.999 53.4987 373.074 54.9213C372.15 56.3082 370.851 57.4107 369.18 58.2286ZM351.896 55.8281H359.951C361.836 55.8281 363.259 55.4547 364.219 54.7079C365.179 53.9255 365.659 52.7875 365.659 51.2938C365.659 49.8357 365.161 48.7155 364.166 47.9331C363.205 47.1507 361.801 46.7595 359.951 46.7595H351.896V55.8281ZM361.392 71.2981C365.446 71.2981 367.473 69.6977 367.473 66.497C367.473 63.4031 365.446 61.8561 361.392 61.8561H351.896V71.2981H361.392Z" fill="black"/>
<path d="M411.969 70.7646V77.6994H383.056V40.3582H411.275V47.293H391.644V55.4014H408.981V62.1228H391.644V70.7646H411.969Z" fill="black"/>
<path d="M435.112 40.3582C438.42 40.3582 441.282 40.9094 443.701 42.0119C446.155 43.1143 448.039 44.6791 449.355 46.7062C450.671 48.7333 451.329 51.1338 451.329 53.9077C451.329 56.6461 450.671 59.0466 449.355 61.1092C448.039 63.1363 446.155 64.7011 443.701 65.8036C441.282 66.8705 438.42 67.4039 435.112 67.4039H427.591V77.6994H418.949V40.3582H435.112ZM434.632 60.3624C437.228 60.3624 439.202 59.8112 440.553 58.7087C441.905 57.5707 442.58 55.9704 442.58 53.9077C442.58 51.8095 441.905 50.2092 440.553 49.1067C439.202 47.9687 437.228 47.3997 434.632 47.3997H427.591V60.3624H434.632Z" fill="black"/>
<path d="M475.208 78.3394C471.403 78.3394 467.953 77.5215 464.859 75.8856C461.8 74.2141 459.382 71.9203 457.604 69.0041C455.861 66.0524 454.99 62.7273 454.99 59.0287C454.99 55.3301 455.861 52.0228 457.604 49.1066C459.382 46.1549 461.8 43.8611 464.859 42.2252C467.953 40.5537 471.42 39.718 475.261 39.718C478.497 39.718 481.414 40.287 484.01 41.425C486.641 42.563 488.846 44.1989 490.624 46.3327L485.077 51.4538C482.552 48.5376 479.422 47.0795 475.688 47.0795C473.376 47.0795 471.314 47.5952 469.5 48.6265C467.686 49.6223 466.264 51.027 465.232 52.8407C464.237 54.6544 463.739 56.7171 463.739 59.0287C463.739 61.3403 464.237 63.403 465.232 65.2167C466.264 67.0304 467.686 68.4529 469.5 69.4842C471.314 70.48 473.376 70.9779 475.688 70.9779C479.422 70.9779 482.552 69.502 485.077 66.5503L490.624 71.6714C488.846 73.8407 486.641 75.4944 484.01 76.6324C481.378 77.7704 478.444 78.3394 475.208 78.3394Z" fill="black"/>
<path d="M496.257 40.3582H504.845V64.6833L522.662 40.3582H530.771V77.6994H522.236V53.4276L504.419 77.6994H496.257V40.3582Z" fill="black"/>
<path d="M568.607 47.3997H556.658V77.6994H548.123V47.3997H536.227V40.3582H568.607V47.3997Z" fill="black"/>
<path d="M602.946 70.7646V77.6994H574.034V40.3582H602.253V47.293H582.622V55.4014H599.959V62.1228H582.622V70.7646H602.946Z" fill="black"/>
<path d="M638.466 47.3997H626.517V77.6994H617.982V47.3997H606.086V40.3582H638.466V47.3997Z" fill="black"/>
<path d="M218.073 105.332H226.662V129.657L244.479 105.332H252.587V142.673H244.052V118.401L226.235 142.673H218.073V105.332Z" fill="black"/>
<path d="M296.132 105.332V142.673H287.49V127.363H270.526V142.673H261.884V105.332H270.526V120.055H287.49V105.332H296.132Z" fill="black"/>
<path d="M339.735 105.332V142.673H331.093V127.363H314.129V142.673H305.487V105.332H314.129V120.055H331.093V105.332H339.735Z" fill="black"/>
<path d="M366.907 143.313C363.031 143.313 359.528 142.477 356.399 140.806C353.305 139.134 350.868 136.84 349.09 133.924C347.348 130.972 346.476 127.665 346.476 124.002C346.476 120.339 347.348 117.05 349.09 114.133C350.868 111.182 353.305 108.87 356.399 107.199C359.528 105.527 363.031 104.691 366.907 104.691C370.784 104.691 374.269 105.527 377.363 107.199C380.457 108.87 382.893 111.182 384.671 114.133C386.449 117.05 387.338 120.339 387.338 124.002C387.338 127.665 386.449 130.972 384.671 133.924C382.893 136.84 380.457 139.134 377.363 140.806C374.269 142.477 370.784 143.313 366.907 143.313ZM366.907 135.951C369.112 135.951 371.104 135.453 372.882 134.458C374.66 133.426 376.047 132.004 377.043 130.19C378.074 128.376 378.59 126.314 378.59 124.002C378.59 121.69 378.074 119.628 377.043 117.814C376.047 116 374.66 114.596 372.882 113.6C371.104 112.569 369.112 112.053 366.907 112.053C364.703 112.053 362.711 112.569 360.933 113.6C359.155 114.596 357.75 116 356.719 117.814C355.723 119.628 355.225 121.69 355.225 124.002C355.225 126.314 355.723 128.376 356.719 130.19C357.75 132.004 359.155 133.426 360.933 134.458C362.711 135.453 364.703 135.951 366.907 135.951Z" fill="black"/>
<path d="M428.029 105.332V142.673H419.441V112.373H402.584V142.673H393.996V105.332H428.029Z" fill="black"/>
<path d="M455.103 143.313C451.227 143.313 447.724 142.477 444.594 140.806C441.5 139.134 439.064 136.84 437.286 133.924C435.543 130.972 434.672 127.665 434.672 124.002C434.672 120.339 435.543 117.05 437.286 114.133C439.064 111.182 441.5 108.87 444.594 107.199C447.724 105.527 451.227 104.691 455.103 104.691C458.979 104.691 462.465 105.527 465.559 107.199C468.653 108.87 471.089 111.182 472.867 114.133C474.645 117.05 475.534 120.339 475.534 124.002C475.534 127.665 474.645 130.972 472.867 133.924C471.089 136.84 468.653 139.134 465.559 140.806C462.465 142.477 458.979 143.313 455.103 143.313ZM455.103 135.951C457.308 135.951 459.3 135.453 461.078 134.458C462.856 133.426 464.243 132.004 465.239 130.19C466.27 128.376 466.786 126.314 466.786 124.002C466.786 121.69 466.27 119.628 465.239 117.814C464.243 116 462.856 114.596 461.078 113.6C459.3 112.569 457.308 112.053 455.103 112.053C452.898 112.053 450.907 112.569 449.129 113.6C447.35 114.596 445.946 116 444.914 117.814C443.919 119.628 443.421 121.69 443.421 124.002C443.421 126.314 443.919 128.376 444.914 130.19C445.946 132.004 447.35 133.426 449.129 134.458C450.907 135.453 452.898 135.951 455.103 135.951Z" fill="black"/>
<path d="M514.436 105.332V142.673H505.901V112.373H493.099L492.832 120.161C492.654 125.46 492.227 129.763 491.552 133.071C490.876 136.342 489.738 138.867 488.138 140.646C486.573 142.388 484.368 143.259 481.523 143.259C480.349 143.259 478.927 143.064 477.255 142.673L477.789 135.364C478.251 135.507 478.767 135.578 479.336 135.578C481.398 135.578 482.839 134.369 483.657 131.95C484.475 129.497 484.99 125.674 485.204 120.481L485.737 105.332H514.436Z" fill="black"/>
<path d="M523.763 105.332H532.351V129.657L550.168 105.332H558.277V142.673H549.741V118.401L531.924 142.673H523.763V105.332Z" fill="black"/>
<path d="M585.231 143.313C581.426 143.313 577.976 142.495 574.882 140.859C571.824 139.188 569.405 136.894 567.627 133.978C565.885 131.026 565.013 127.701 565.013 124.002C565.013 120.304 565.885 116.996 567.627 114.08C569.405 111.128 571.824 108.835 574.882 107.199C577.976 105.527 581.444 104.691 585.284 104.691C588.521 104.691 591.437 105.261 594.033 106.399C596.665 107.537 598.869 109.172 600.648 111.306L595.1 116.427C592.575 113.511 589.445 112.053 585.711 112.053C583.399 112.053 581.337 112.569 579.523 113.6C577.709 114.596 576.287 116 575.256 117.814C574.26 119.628 573.762 121.69 573.762 124.002C573.762 126.314 574.26 128.376 575.256 130.19C576.287 132.004 577.709 133.426 579.523 134.458C581.337 135.453 583.399 135.951 585.711 135.951C589.445 135.951 592.575 134.475 595.1 131.524L600.648 136.645C598.869 138.814 596.665 140.468 594.033 141.606C591.401 142.744 588.467 143.313 585.231 143.313Z" fill="black"/>
</g>
<path d="M822.61 127.12C818.77 126 816.09 124.88 814.57 123.76C813.13 122.64 812.41 121.24 812.41 119.56C812.41 118.28 812.77 116.48 813.49 114.16C814.21 111.84 815.25 109.12 816.61 106C818.05 102.8 819.73 99.28 821.65 95.44C823.65 91.6 825.89 87.48 828.37 83.08C826.29 83 824.41 82.96 822.73 82.96C821.13 82.88 819.81 82.84 818.77 82.84C819.25 81.64 820.61 80.6 822.85 79.72C825.09 78.84 828.05 78.08 831.73 77.44C834.85 72.24 838.17 67.28 841.69 62.56C845.29 57.84 848.89 53.52 852.49 49.6C856.09 45.6 859.69 42.12 863.29 39.16C866.89 36.12 870.33 33.72 873.61 31.96C873.69 31.4 873.73 30.92 873.73 30.52C873.81 30.12 873.85 29.84 873.85 29.68C874.97 29.68 876.45 29.96 878.29 30.52C880.21 31.08 882.05 31.76 883.81 32.56C885.65 33.36 887.25 34.2 888.61 35.08C890.05 35.88 890.85 36.56 891.01 37.12C888.37 41.76 885.77 48.72 883.21 58C880.65 67.2 878.53 78.24 876.85 91.12C876.45 94.32 876.09 97.96 875.77 102.04C875.53 106.12 875.41 110.68 875.41 115.72C875.41 117.48 875.41 119.28 875.41 121.12C875.41 122.96 875.49 124.88 875.65 126.88C875.49 126.96 875.33 127 875.17 127C875.01 127 874.69 127 874.21 127C873.09 127 871.77 126.8 870.25 126.4C868.81 126.08 867.37 125.64 865.93 125.08C864.57 124.6 863.37 124.04 862.33 123.4C861.37 122.76 860.77 122.2 860.53 121.72C860.45 120.68 860.41 119.64 860.41 118.6C860.41 117.64 860.41 116.6 860.41 115.48C860.41 110.52 860.57 105.48 860.89 100.36C861.29 95.24 861.93 89.96 862.81 84.52C861.69 84.44 860.21 84.36 858.37 84.28C856.53 84.12 854.45 84 852.13 83.92C849.89 83.84 847.45 83.76 844.81 83.68C842.25 83.52 839.73 83.4 837.25 83.32C835.33 86.92 833.53 90.52 831.85 94.12C830.17 97.64 828.73 101.2 827.53 104.8C826.17 108.64 825.05 112.48 824.17 116.32C823.37 120.16 822.85 123.76 822.61 127.12ZM868.93 55C869.25 53.88 869.61 52.36 870.01 50.44C870.49 48.44 870.93 46.36 871.33 44.2C869.33 44.92 867.09 46.24 864.61 48.16C862.21 50.08 859.69 52.48 857.05 55.36C854.49 58.16 851.85 61.36 849.13 64.96C846.49 68.48 843.93 72.24 841.45 76.24C848.17 75.68 855.81 75.32 864.37 75.16C865.01 71.8 865.69 68.48 866.41 65.2C867.21 61.84 868.05 58.44 868.93 55ZM889.121 110.32C889.121 106.8 889.961 101.88 891.641 95.56C893.321 89.16 895.681 81.72 898.721 73.24C903.681 59.72 908.321 48.48 912.641 39.52C917.041 30.48 921.321 23.44 925.481 18.4C926.441 18.56 927.601 18.96 928.961 19.6C930.401 20.24 931.801 20.96 933.161 21.76C934.521 22.48 935.721 23.24 936.761 24.04C937.881 24.84 938.601 25.48 938.921 25.96C932.681 33.32 927.201 41.24 922.481 49.72C917.761 58.2 913.441 67.92 909.521 78.88C906.161 88.32 903.601 96.84 901.841 104.44C900.081 111.96 899.201 118.24 899.201 123.28C899.201 124.64 899.201 125.48 899.201 125.8C899.201 126.12 899.241 126.44 899.321 126.76C898.201 126.6 897.241 126.32 896.441 125.92C895.641 125.52 895.121 125.04 894.881 124.48C894.721 124.08 894.281 123.48 893.561 122.68C892.841 121.96 892.201 121.4 891.641 121C890.921 120.52 890.321 119.28 889.841 117.28C889.361 115.2 889.121 112.88 889.121 110.32ZM949.04 115.36C947.52 114.08 946.48 112.48 945.92 110.56C945.44 108.64 945.2 107 945.2 105.64C945.2 103.96 945.4 102.52 945.8 101.32C945.48 101.32 944.76 101.96 943.64 103.24C942.52 104.52 941.28 106.04 939.92 107.8C938.64 109.56 937.36 111.28 936.08 112.96C934.8 114.64 933.84 115.88 933.2 116.68C932.16 117.8 931.16 118.68 930.2 119.32C929.32 119.96 928.6 120.32 928.04 120.4C926.76 120.32 925.4 120.04 923.96 119.56C922.6 119.16 921.28 118.56 920 117.76C918.8 116.96 917.72 116 916.76 114.88C915.88 113.76 915.28 112.48 914.96 111.04C914.96 108.8 915 106.96 915.08 105.52C915.24 104.08 915.52 102.52 915.92 100.84C916.64 97.8 917.68 94.36 919.04 90.52C920.48 86.68 922.12 82.92 923.96 79.24C925.8 75.48 927.84 72 930.08 68.8C932.4 65.52 934.84 62.96 937.4 61.12C938.12 61.12 938.96 61.2 939.92 61.36C940.88 61.44 941.84 61.64 942.8 61.96C943.84 62.28 944.8 62.68 945.68 63.16C946.64 63.56 947.44 64.12 948.08 64.84C947.36 65.64 945.52 68.32 942.56 72.88C939.68 77.44 936.44 84 932.84 92.56C932.44 93.44 931.96 94.72 931.4 96.4C930.84 98.08 930.28 99.84 929.72 101.68C929.16 103.52 928.68 105.32 928.28 107.08C927.96 108.84 927.8 110.24 927.8 111.28C927.8 111.92 927.88 112.4 928.04 112.72C928.28 113.04 928.48 113.28 928.64 113.44C929.84 112.96 931.36 111.64 933.2 109.48C935.04 107.32 937.6 104 940.88 99.52C941.68 98.4 942.6 97.12 943.64 95.68C944.76 94.24 945.88 92.72 947 91.12C948.12 89.44 949.16 87.72 950.12 85.96C951.16 84.2 952 82.44 952.64 80.68C952.96 79.72 953.36 78.6 953.84 77.32C954.4 75.96 955.04 74.56 955.76 73.12C956.56 71.68 957.44 70.24 958.4 68.8C959.44 67.28 960.64 65.88 962 64.6C963.04 64.6 964.16 64.72 965.36 64.96C966.56 65.2 967.68 65.52 968.72 65.92C969.84 66.24 970.8 66.64 971.6 67.12C972.4 67.52 973 67.96 973.4 68.44C971.96 71.96 970.36 75.44 968.6 78.88C966.84 82.32 965.2 85.72 963.68 89.08C962.16 92.36 960.88 95.64 959.84 98.92C958.8 102.2 958.28 105.4 958.28 108.52C958.28 110.2 958.4 111.68 958.64 112.96C958.96 114.16 959.28 115.2 959.6 116.08C959.92 116.88 960.2 117.56 960.44 118.12C960.76 118.68 960.92 119.16 960.92 119.56C960.92 119.64 960.84 119.76 960.68 119.92C960.6 120 960.52 120.04 960.44 120.04C959.88 120.04 959.16 119.92 958.28 119.68C957.4 119.44 956.4 119.08 955.28 118.6C954.24 118.2 953.16 117.72 952.04 117.16C951 116.6 950 116 949.04 115.36ZM1043.39 81.16C1042.11 81.24 1040.55 82.08 1038.71 83.68C1036.87 85.2 1034.87 87.2 1032.71 89.68C1030.63 92.08 1028.43 94.76 1026.11 97.72C1023.87 100.68 1021.67 103.64 1019.51 106.6C1017.43 109.48 1015.47 112.2 1013.63 114.76C1011.79 117.32 1010.23 119.36 1008.95 120.88C1007.19 120.16 1005.67 119.12 1004.39 117.76C1003.11 116.32 1002.19 114.56 1001.63 112.48C1002.03 110 1002.59 107.44 1003.31 104.8C1004.03 102.08 1004.95 99.28 1006.07 96.4C1007.27 93.52 1008.71 90.52 1010.39 87.4C1012.15 84.2 1014.27 80.84 1016.75 77.32C1015.55 77.4 1013.91 78.28 1011.83 79.96C1009.75 81.56 1007.51 83.68 1005.11 86.32C1002.71 88.88 1000.23 91.8 997.668 95.08C995.108 98.28 992.708 101.44 990.468 104.56C987.508 108.72 985.028 112.36 983.028 115.48C981.108 118.6 979.708 120.44 978.828 121C976.748 119.48 975.308 117.84 974.508 116.08C973.708 114.32 973.108 112.36 972.708 110.2C972.788 108.28 973.068 105.88 973.548 103C974.108 100.12 974.868 97.16 975.828 94.12C977.668 88.28 980.028 82.48 982.908 76.72C985.868 70.96 988.708 65.68 991.428 60.88C993.668 61.36 995.668 62.12 997.428 63.16C999.268 64.2 1001.19 65.72 1003.19 67.72C1002.39 70.2 1001.15 72.84 999.468 75.64C997.788 78.36 996.028 81.24 994.188 84.28C992.348 87.32 990.668 90.44 989.148 93.64C987.628 96.84 986.628 100.08 986.148 103.36C988.388 100.16 991.028 96.48 994.068 92.32C997.188 88.16 1000.35 84.24 1003.55 80.56C1006.83 76.88 1010.07 73.76 1013.27 71.2C1016.47 68.64 1019.35 67.36 1021.91 67.36C1022.87 67.36 1023.91 67.52 1025.03 67.84C1026.15 68.16 1027.19 68.56 1028.15 69.04C1029.11 69.52 1029.91 70 1030.55 70.48C1031.19 70.88 1031.55 71.2 1031.63 71.44C1031.23 73.04 1030.27 75.24 1028.75 78.04C1027.31 80.76 1025.75 83.64 1024.07 86.68C1022.39 89.72 1020.83 92.68 1019.39 95.56C1017.95 98.36 1017.11 100.6 1016.87 102.28C1020.79 96.92 1024.47 92.08 1027.91 87.76C1031.35 83.36 1034.59 79.6 1037.63 76.48C1040.67 73.36 1043.47 70.96 1046.03 69.28C1048.67 67.6 1051.15 66.76 1053.47 66.76C1055.07 66.76 1056.55 67.2 1057.91 68.08C1059.35 68.88 1060.35 70.08 1060.91 71.68C1060.19 74.08 1058.99 76.96 1057.31 80.32C1055.71 83.68 1054.07 87.24 1052.39 91C1050.71 94.68 1049.19 98.32 1047.83 101.92C1046.55 105.52 1045.91 108.76 1045.91 111.64C1045.91 113.32 1046.15 114.44 1046.63 115C1047.11 115.48 1047.79 115.72 1048.67 115.72C1049.63 115.72 1050.51 115.56 1051.31 115.24C1052.19 114.84 1052.83 114.64 1053.23 114.64C1053.71 114.96 1053.99 115.36 1054.07 115.84C1054.15 116.32 1054.19 116.76 1054.19 117.16C1052.59 118.44 1050.95 119.48 1049.27 120.28C1047.59 121.16 1045.71 121.6 1043.63 121.6C1041.71 121.6 1040.11 121.28 1038.83 120.64C1037.63 120 1036.63 119.12 1035.83 118C1035.03 116.88 1034.47 115.6 1034.15 114.16C1033.83 112.72 1033.67 111.16 1033.67 109.48C1033.67 106.76 1034.03 104.08 1034.75 101.44C1035.47 98.72 1036.31 96.16 1037.27 93.76C1038.31 91.28 1039.39 89 1040.51 86.92C1041.63 84.76 1042.59 82.84 1043.39 81.16ZM1084.03 59.8C1086.11 60.44 1088.07 61.88 1089.91 64.12C1091.75 66.28 1093.11 68.68 1093.99 71.32C1093.11 73.48 1091.75 76.08 1089.91 79.12C1088.07 82.16 1086.23 85.28 1084.39 88.48C1082.55 91.6 1080.87 94.6 1079.35 97.48C1077.91 100.28 1077.07 102.6 1076.83 104.44C1078.11 103.08 1079.51 101.52 1081.03 99.76C1082.63 97.92 1084.15 96.12 1085.59 94.36C1087.11 92.52 1088.51 90.88 1089.79 89.44C1091.07 87.92 1092.07 86.8 1092.79 86.08C1094.31 84.48 1096.11 82.64 1098.19 80.56C1100.27 78.4 1102.43 76.4 1104.67 74.56C1106.99 72.64 1109.31 71.04 1111.63 69.76C1113.95 68.4 1116.07 67.72 1117.99 67.72C1120.07 67.72 1121.79 68.44 1123.15 69.88C1124.59 71.24 1125.71 72.68 1126.51 74.2C1126.51 74.36 1126.19 74.6 1125.55 74.92C1124.99 75.16 1124.15 75.92 1123.03 77.2C1121.91 78.64 1120.63 80.64 1119.19 83.2C1117.83 85.68 1116.47 88.4 1115.11 91.36C1113.83 94.24 1112.75 97.2 1111.87 100.24C1110.99 103.28 1110.55 106.04 1110.55 108.52C1110.55 110.52 1110.79 111.8 1111.27 112.36C1111.83 112.92 1112.59 113.2 1113.55 113.2C1114.43 113.2 1115.35 113 1116.31 112.6C1117.27 112.2 1118.03 112 1118.59 112C1118.91 112.16 1119.15 112.52 1119.31 113.08C1119.55 113.56 1119.67 114 1119.67 114.4C1119.03 114.96 1118.27 115.52 1117.39 116.08C1116.51 116.64 1115.59 117.16 1114.63 117.64C1113.67 118.12 1112.71 118.52 1111.75 118.84C1110.87 119.16 1110.07 119.32 1109.35 119.32C1107.03 119.32 1105.11 118.96 1103.59 118.24C1102.15 117.6 1100.99 116.72 1100.11 115.6C1099.31 114.48 1098.75 113.16 1098.43 111.64C1098.11 110.04 1097.95 108.36 1097.95 106.6C1097.95 105.64 1098.03 104.56 1098.19 103.36C1098.35 102.16 1098.67 100.76 1099.15 99.16C1099.63 97.48 1100.31 95.52 1101.19 93.28C1102.07 90.96 1103.19 88.2 1104.55 85C1104.39 85 1103.31 85.56 1101.31 86.68C1099.31 87.8 1097.15 89.52 1094.83 91.84C1091.07 95.44 1087.67 99 1084.63 102.52C1081.67 106.04 1078.63 109.96 1075.51 114.28C1073.75 116.76 1072.19 118.84 1070.83 120.52C1069.55 122.28 1068.43 123.44 1067.47 124C1065.79 123.04 1064.55 121.68 1063.75 119.92C1062.95 118.24 1062.35 116.48 1061.95 114.64C1061.95 113.12 1062.15 111.2 1062.55 108.88C1063.03 106.56 1063.63 104 1064.35 101.2C1065.15 98.32 1066.11 95.32 1067.23 92.2C1068.35 89.08 1069.59 85.96 1070.95 82.84C1073.99 75.8 1076.75 70.28 1079.23 66.28C1081.79 62.28 1083.39 60.12 1084.03 59.8ZM1128.31 109.96C1128.31 109.24 1128.35 108.36 1128.43 107.32C1128.59 106.2 1128.83 104.76 1129.15 103C1129.47 101.16 1129.87 98.96 1130.35 96.4C1130.91 93.84 1131.59 90.76 1132.39 87.16C1132.55 86.36 1132.91 85.08 1133.47 83.32C1134.03 81.56 1134.75 79.72 1135.63 77.8C1136.59 75.8 1137.71 73.88 1138.99 72.04C1140.35 70.2 1141.95 68.84 1143.79 67.96C1145.15 68.28 1146.95 69.12 1149.19 70.48C1151.43 71.76 1153.35 73.56 1154.95 75.88C1153.11 77.96 1151.55 80.04 1150.27 82.12C1149.07 84.2 1147.95 86.36 1146.91 88.6C1145.95 90.84 1145.03 93.16 1144.15 95.56C1143.35 97.96 1142.43 100.48 1141.39 103.12C1140.51 105.36 1139.71 107.68 1138.99 110.08C1138.27 112.4 1137.87 114.44 1137.79 116.2C1137.79 117.64 1137.75 118.64 1137.67 119.2C1137.67 119.84 1137.47 120.16 1137.07 120.16C1136.75 120.16 1136.11 119.96 1135.15 119.56C1134.19 119.16 1133.19 118.56 1132.15 117.76C1131.19 116.88 1130.31 115.8 1129.51 114.52C1128.71 113.24 1128.31 111.72 1128.31 109.96ZM1151.23 57.88C1151.23 57.4 1151.35 56.68 1151.59 55.72C1151.19 55.32 1150.83 54.72 1150.51 53.92C1150.27 53.12 1150.15 52.4 1150.15 51.76C1150.15 51.04 1150.23 50.08 1150.39 48.88C1150.63 47.6 1150.91 46.24 1151.23 44.8C1151.55 43.36 1151.95 41.88 1152.43 40.36C1152.91 38.76 1153.39 37.32 1153.87 36.04C1154.83 36.04 1155.99 36.32 1157.35 36.88C1158.79 37.36 1160.23 38.04 1161.67 38.92C1163.11 39.72 1164.43 40.64 1165.63 41.68C1166.83 42.64 1167.75 43.56 1168.39 44.44C1167.51 45.32 1166.35 46.56 1164.91 48.16C1163.47 49.68 1162.07 51.32 1160.71 53.08C1159.35 54.76 1158.11 56.36 1156.99 57.88C1155.87 59.4 1155.15 60.48 1154.83 61.12C1153.87 60.96 1153.03 60.56 1152.31 59.92C1151.59 59.2 1151.23 58.52 1151.23 57.88Z" fill="#40BA21"/>
<path d="M748.973 119.113C746.316 119.113 743.602 118.586 740.828 117.531C738.055 116.477 735.301 115.031 732.566 113.195C729.637 115.07 726.414 116.535 722.898 117.59C719.383 118.605 715.398 119.113 710.945 119.113C707.352 119.113 704.168 118.723 701.395 117.941C698.621 117.121 696.277 115.988 694.363 114.543C692.449 113.098 690.984 111.398 689.969 109.445C688.992 107.492 688.504 105.363 688.504 103.059C688.504 100.52 689.012 98.2148 690.027 96.1445C691.043 94.0352 692.41 92.1016 694.129 90.3438C695.848 88.5469 697.801 86.8867 699.988 85.3633C702.215 83.8398 704.539 82.375 706.961 80.9688C705.906 78.3125 705.066 75.6953 704.441 73.1172C703.855 70.5391 703.562 68.0781 703.562 65.7344C703.562 63.3516 704.051 61.0273 705.027 58.7617C706.043 56.457 707.469 54.4258 709.305 52.668C711.141 50.9102 713.348 49.5039 715.926 48.4492C718.504 47.3555 721.375 46.8086 724.539 46.8086C726.688 46.8086 728.836 47.082 730.984 47.6289C733.172 48.1758 735.125 49.0352 736.844 50.207C738.602 51.3789 740.008 52.9023 741.062 54.7773C742.156 56.6133 742.703 58.8398 742.703 61.457C742.703 63.8008 742.137 65.9492 741.004 67.9023C739.871 69.8555 738.387 71.6719 736.551 73.3516C734.715 75.0312 732.625 76.6133 730.281 78.0977C727.938 79.582 725.535 81.0273 723.074 82.4336C724.48 85.5586 726.121 88.625 727.996 91.6328C729.871 94.6406 731.902 97.4141 734.09 99.9531C735.652 98.3906 737.137 96.75 738.543 95.0312C739.988 93.2734 741.297 91.5352 742.469 89.8164C743.68 88.0977 744.754 86.4375 745.691 84.8359C746.629 83.1953 747.41 81.6914 748.035 80.3242L756.062 85.6562C753.602 89.4844 751.141 93.1758 748.68 96.7305C746.258 100.246 743.621 103.469 740.77 106.398C742.566 107.766 744.344 108.84 746.102 109.621C747.859 110.363 749.598 110.734 751.316 110.734C752.84 110.734 754.148 110.5 755.242 110.031C756.375 109.562 757.371 108.918 758.23 108.098C759.09 107.238 759.852 106.242 760.516 105.109C761.219 103.938 761.863 102.668 762.449 101.301L768.719 104.113C767.117 109.387 764.695 113.215 761.453 115.598C758.211 117.941 754.051 119.113 748.973 119.113ZM713.875 110.734C715.789 110.734 717.664 110.422 719.5 109.797C721.375 109.172 723.25 108.312 725.125 107.219C722.43 104.719 719.91 101.984 717.566 99.0156C715.223 96.0078 713.113 92.8828 711.238 89.6406C708.973 91.3203 707.117 93.0977 705.672 94.9727C704.266 96.8086 703.562 98.8594 703.562 101.125C703.562 102.375 703.758 103.586 704.148 104.758C704.539 105.93 705.145 106.965 705.965 107.863C706.785 108.723 707.84 109.426 709.129 109.973C710.457 110.48 712.039 110.734 713.875 110.734ZM718.27 64.3867C718.27 67.1602 718.777 70.2461 719.793 73.6445C721.316 72.668 722.723 71.6719 724.012 70.6562C725.34 69.6406 726.473 68.5859 727.41 67.4922C728.348 66.3594 729.09 65.1875 729.637 63.9766C730.184 62.7266 730.457 61.3984 730.457 59.9922C730.457 57.5312 729.949 55.832 728.934 54.8945C727.957 53.918 726.707 53.4297 725.184 53.4297C724.207 53.4297 723.289 53.7031 722.43 54.25C721.609 54.7969 720.887 55.5586 720.262 56.5352C719.637 57.5117 719.148 58.6836 718.797 60.0508C718.445 61.3789 718.27 62.8242 718.27 64.3867Z" fill="#40BA21"/>
<defs>
<clipPath id="clip0_180_762">
<rect width="639" height="160" fill="white" transform="translate(0 12)"/>
</clipPath>
</defs>
</svg>
