<svg fill="none" height="16" viewBox="0 0 16 16" width="16" xmlns="http://www.w3.org/2000/svg"><path d="m7.31299 1.26145c.3855-.36447.98852-.36447 1.37402 0l4.84349 4.57934c.2997.28334.4695.67756.4695 1.08997v5.56924c0 .8284-.6716 1.5-1.5 1.5h-2c-.82843 0-1.5-.6716-1.5-1.5v-2.5c0-.27611-.22386-.49997-.5-.49997h-1c-.27614 0-.5.22386-.5.49997v2.5c0 .8284-.67157 1.5-1.5 1.5h-2c-.82843 0-1.5-.6716-1.5-1.5v-5.56924c0-.41241.1698-.80663.46948-1.08997zm.68701.72665-4.84351 4.57934c-.09989.09444-.15649.22585-.15649.36332v5.56924c0 .2761.22386.5.5.5h2c.27614 0 .5-.2239.5-.5v-2.5c0-.82839.67157-1.49997 1.5-1.49997h1c.82843 0 1.5.67158 1.5 1.49997v2.5c0 .2761.2239.5.5.5h2c.2761 0 .5-.2239.5-.5v-5.56924c0-.13747-.0566-.26888-.1565-.36332z" fill="#212121"/></svg>