<svg width="25" height="24" viewBox="0 0 25 24" fill="none" xmlns="http://www.w3.org/2000/svg">
<path d="M20.3473 17.2287C19.5618 17.4061 18.7419 17.5 17.8989 17.5C12.1041 17.5 7.40645 13.0602 7.40645 7.58338C7.40645 7.01932 7.45627 6.46627 7.552 5.92793C7.50733 5.96854 7.46116 6.00594 7.41255 6.04081C7.06616 6.28934 6.63476 6.38159 5.77196 6.5661L4.98644 6.73408C1.95019 7.38335 0.43207 7.70799 0.0708821 8.80573C-0.290306 9.90352 0.744659 11.0473 2.81458 13.3349L3.35009 13.9268C3.93828 14.5768 4.23239 14.9019 4.3647 15.304C4.49701 15.7062 4.45255 16.1398 4.36361 17.0072L4.28266 17.7968C3.96971 20.8491 3.81324 22.3752 4.75883 23.0536C5.70441 23.732 7.12583 23.1136 9.96871 21.8764L10.7042 21.5563C11.512 21.2048 11.9159 21.0291 12.3441 21.0291C12.7723 21.0291 13.1762 21.2048 13.984 21.5563L14.7195 21.8764C17.5623 23.1136 18.9837 23.732 19.9294 23.0536C20.875 22.3752 20.7184 20.8491 20.4055 17.7968L20.3473 17.2287Z" fill="black" fill-opacity="0.8"/>
<path d="M8.82992 3.97644L8.42541 4.66227C7.98109 5.4156 7.75894 5.79229 7.41255 6.04081C7.46116 6.00594 7.50733 5.96854 7.552 5.92793C7.45627 6.46627 7.40645 7.01932 7.40645 7.58338C7.40645 13.0602 12.1041 17.5 17.8989 17.5C18.7419 17.5 19.5618 17.4061 20.3473 17.2287L20.3246 17.0072C20.2356 16.1398 20.1911 15.7061 20.3235 15.304C20.4558 14.9018 20.7498 14.5768 21.338 13.9267L21.8736 13.3349C23.9435 11.0473 24.9784 9.90337 24.6172 8.80568C24.2561 7.70796 22.738 7.38332 19.7017 6.73403L18.9163 6.56606C18.0534 6.38155 17.622 6.2893 17.2756 6.04078C16.9292 5.79225 16.707 5.4156 16.2628 4.66228L15.8583 3.97643C14.2946 1.32547 13.5129 0 12.3441 0C11.1753 0 10.3935 1.32548 8.82992 3.97644Z" fill="#40BA21" fill-opacity="0.8"/>
</svg>
